<svg width="128" height="23" viewBox="0 0 128 23" fill="none" xmlns="http://www.w3.org/2000/svg">
<path d="M20.9904 0.820068L10.9404 11.9201L0.890391 0.820068H0.650391V22.0001H4.64039V10.6601L10.7904 17.2901H11.0604L17.2704 10.6601V22.0001H21.2604V0.820068H20.9904Z" fill="#121212"/>
<path d="M23.6566 18.1901V22.0001H37.6066V18.1901H23.6566ZM36.4966 9.61007H23.6566V13.4201H36.4966V9.61007ZM37.4266 1.00007H23.6566V4.84007H37.4266V1.00007Z" fill="#121212"/>
<path d="M38.7638 1.00007V4.84007H54.0638V1.00007H38.7638ZM44.4338 22.0001H48.4238V7.96007H44.4338V22.0001Z" fill="#121212"/>
<path d="M63.4938 1.00007H55.7238V4.84007H63.4038C65.4138 4.84007 66.6738 6.10007 66.6738 7.90007C66.6738 9.70007 65.4138 10.9901 63.4038 10.9901H55.7238V22.0001H59.7138V14.8001H63.4938C68.1738 14.8001 70.7838 11.7401 70.7838 7.90007C70.7838 4.06007 68.1738 1.00007 63.4938 1.00007Z" fill="#121212"/>
<path d="M76.4212 1.00007H72.4313V22.2401H72.7012L84.6113 10.2401V22.0001H88.6012V0.820068H88.3313L76.4212 12.7901V1.00007Z" fill="#121212"/>
<path d="M102.834 22.0001H107.814L101.034 11.3501L107.364 1.00007H102.984L97.4637 9.58007H95.0037V1.00007H91.0137V22.0001H95.0037V13.3901H97.5537L102.834 22.0001Z" fill="#121212"/>
<path d="M119.86 1.00007H115.78L108.1 22.0001H112.63L117.82 7.00007L123.01 22.0001H127.54L119.86 1.00007Z" fill="#121212"/>
</svg>
